<svg width="512" height="512" viewBox="0 0 512 512" xmlns="http://www.w3.org/2000/svg">

    <!-- Background Color
    <rect x="0" y="0" width="512" height="512" rx="0" fill="#EEEEEE"/>
    -->


    <!-- Foreground scaled down more -->
    <g transform="translate(256 256) scale(0.70) translate(-256 -256)">

        <!-- Sun -->
        <circle cx="380" cy="132" r="36" fill="#6750A4"/>
        <g stroke="#6750A4" stroke-width="15" stroke-linecap="round">
            <line x1="380" y1="72" x2="380" y2="44"/>
            <line x1="380" y1="192" x2="380" y2="220"/>
            <line x1="320" y1="132" x2="292" y2="132"/>
            <line x1="440" y1="132" x2="468" y2="132"/>
            <line x1="338" y1="90" x2="318" y2="70"/>
            <line x1="422" y1="90" x2="442" y2="70"/>
            <line x1="338" y1="174" x2="318" y2="194"/>
            <line x1="422" y1="174" x2="442" y2="194"/>
        </g>

        <!-- Face -->
        <circle cx="256" cy="280" r="150" fill="#21005D"/>

        <!-- Eyes -->
        <circle cx="212" cy="240" r="15" fill="#EADDFF"/>
        <circle cx="300" cy="240" r="15" fill="#EADDFF"/>

        <!-- Smile -->
        <path d="M210 280 Q256 330 302 280"
            stroke="#EADDFF"
            stroke-width="15"
            fill="none"
            stroke-linecap="round"/>

    </g>
</svg>
